<svg id="Layer_1" data-name="Layer 1" xmlns="http://www.w3.org/2000/svg" viewBox="0 0 1490 354"><defs><style>.cls-1{fill:#e91e63;}</style></defs><title>logo_pink</title><path class="cls-1" d="M126.12,21.54c26.7,24.79,28.59,64.76,6.41,88.56-11.49,12.33-24.23,23.56-32.45,38.63-13.15,24.11-10.48,48.77-2.61,73.61,1.42,4.48,3.71,4.35,6.24.94,15.55-20.91,35.38-38,51.49-58.47,16.81-21.32,21.88-45.11,15.63-71.44a5.52,5.52,0,0,1,.51-4c11.13,17.55,15,36.89,13.29,57.35-3.17,38.85-24.26,68.65-49.42,96.31-6.81,7.49-13.67,15-20.11,22.76-16.23,19.69-28.63,41-26.49,68.39-1.72-.43-2.95-.36-3.38-.9-20.16-25.7-36.34-53.58-46.07-84.94-10.52-33.91-3.45-65.27,13.66-95.22,11.6-20.31,26.21-38.46,40.42-56.9,3.71-4.81,7.53-9.55,11-14.5C116.57,64.38,129.12,47.08,126.12,21.54Z"/><path class="cls-1" d="M179.25,200.79c3.22,32.9-1.36,63.47-23.82,88.91a316.64,316.64,0,0,1-34.1,33c-8.82,7.39-16.73,15.49-20.7,27.3-8.29-15.41-5-41.89,6.78-59.91,6.87-10.47,15.34-19.66,23.79-28.8C148.68,242.38,168.79,225.57,179.25,200.79Z"/><path class="cls-1" d="M111.45,8.27c7.88,11.81,7.44,24,3.51,36.53-6.14,19.51-18.89,34.88-31.85,50-24.44,28.52-48.39,57.3-60,94-.27.87-1.2,1.53-2.75,3.42-2.87-9.72-2-18.54-.66-27.23C24.38,133.71,41,108.59,61.42,85.51c6.92-7.83,14-15.57,21.24-23.08C97.39,47.22,109.85,30.86,111.45,8.27Z"/><path class="cls-1" d="M108,182c.16-16.88,5.83-31.62,17-44.8,11.68-13.82,26.34-25.17,35.32-41.63,3,18.25,0,35.24-12.34,49.32-11.75,13.37-24.59,25.79-37,38.62Z"/><path class="cls-1" d="M351,72.47H314.59q-18.89,0-26.81,7.76t-7.93,27v32h58v11.47h-58v151.1H266.36V150.72H237v-9.78l29.34-1.35V106.53q0-23.27,10.29-34.57t33.56-11.3q26.64,0,41.48,1.69Z"/><path class="cls-1" d="M383.05,71.46h6.07q5.06,0,5.06,5.4V97.09q0,5.4-5.06,5.4h-6.07q-5.4,0-5.4-5.4V76.85Q377.66,71.46,383.05,71.46Zm9.44,230.36H379.34V139.25H392.5Z"/><path class="cls-1" d="M547.64,135.2l-2,12.82h-6.75A74.59,74.59,0,0,0,508,154.93q-15.35,6.92-40,22.77V301.82H454.89V139.25H465l1.69,28.67q41.15-32.71,74.2-32.72Z"/><path class="cls-1" d="M670.41,227.28H583.73q1.34,37.11,15.51,51.77t45.87,14.67a383.85,383.85,0,0,0,55.65-4l1.69,9.44q-20.24,6.74-59,6.75-39.46,0-56.66-19.73t-17.2-66.27q0-46.54,16.36-65.6t54.81-19.06q64.42,0,65.43,47.89.67,22.26-7.93,33.22T670.41,227.28Zm-86.68-11.13h84.66q25,0,23.95-32.38-.34-18.88-12.65-27.66t-38.28-8.77q-31.71,0-44.52,15.18T583.73,216.15Z"/><path class="cls-1" d="M834.66,229.3l-53-7.76q-18.21-2.7-26.81-12.65t-8.6-30.19q0-28.33,13.49-36.26T807,135.2a578.29,578.29,0,0,1,64.42,4.38l-1.35,9.78q-38.79-2-61.72-2.36-29-.67-39,4.55t-9.95,27.15q0,15.86,6.41,22.6t19.9,8.77l53,7.76q18.54,3,27.83,13T875.81,260q0,28.67-14.84,37.1t-50.59,8.43a422.66,422.66,0,0,1-60.37-4l1.35-9.78q29,2.36,57.67,2,31.37-.33,42.5-6.58T862.65,260q0-14.84-7.25-21.58T834.66,229.3Z"/><path class="cls-1" d="M949,150.72V266.06q0,25.63,26,25.63h28.33l1.69,9.78a177.14,177.14,0,0,1-31,2.7q-38.45,0-38.45-36.76V150.72H906.16v-9.78l29.34-1.35V89H949v50.25h58v11.47Z"/><path class="cls-1" d="M1044.44,152.4l-1.35-10.12q51.26-7.08,77.57-7.08,47.89,0,47.89,47.22v119.4h-10.12l-2.36-30q-12.48,12.14-33.56,22.26t-42,10.12q-20.92,0-32.55-11T1036.34,262V241.78q0-18.54,10.62-28.67T1076.81,203h78.25V182.42q0-16.86-8.09-26t-28-9.11Q1090,147.34,1044.44,152.4Zm5.73,90.39V261q0,30.35,31.7,30.69,16.86.34,37.77-8.6t35.41-22.43V213.79l-76.9,1Q1050.17,215.14,1050.17,242.79Z"/><path class="cls-1" d="M1321.33,135.2l-2,12.82h-6.75a74.59,74.59,0,0,0-30.86,6.91q-15.35,6.92-40,22.77V301.82h-13.15V139.25h10.12l1.69,28.67q41.14-32.71,74.2-32.72Z"/><path class="cls-1" d="M1398.23,214.46h-26.64q1,15.18,1,28.67v58.69H1359.1V65.72h13.83V176a259.76,259.76,0,0,1-1.35,27.66h26.64l61.38-64.42h16.53l-58.35,62.06a77.49,77.49,0,0,1-8.77,7.76v.67a53.21,53.21,0,0,1,8.77,9.78l63.75,82.29h-16.19Z"/></svg>